<?xml version="1.0" encoding="UTF-8" standalone="no"?>
<svg
   xmlns:dc="http://purl.org/dc/elements/1.1/"
   xmlns:cc="http://creativecommons.org/ns#"
   xmlns:rdf="http://www.w3.org/1999/02/22-rdf-syntax-ns#"
   xmlns:svg="http://www.w3.org/2000/svg"
   xmlns="http://www.w3.org/2000/svg"
   xmlns:sodipodi="http://sodipodi.sourceforge.net/DTD/sodipodi-0.dtd"
   xmlns:inkscape="http://www.inkscape.org/namespaces/inkscape"
   width="1000"
   height="1000"
   version="1.1"
   id="svg4136"
   inkscape:version="0.91 r13725"
   sodipodi:docname="non-copyright restrictions.svg">
  <metadata
     id="metadata4152">
    <rdf:RDF>
      <cc:Work
         rdf:about="">
        <dc:format>image/svg+xml</dc:format>
        <dc:type
           rdf:resource="http://purl.org/dc/dcmitype/StillImage" />
        <dc:title></dc:title>
        <dc:date>2016</dc:date>
        <dc:creator>
          <cc:Agent>
            <dc:title>Lazur URH</dc:title>
          </cc:Agent>
        </dc:creator>
        <dc:description>non-copyright restrictions symbol</dc:description>
      </cc:Work>
    </rdf:RDF>
  </metadata>
  <defs
     id="defs4150" />
  <sodipodi:namedview
     pagecolor="#ffffff"
     bordercolor="#003ecc"
     borderopacity="1"
     objecttolerance="10"
     gridtolerance="10"
     guidetolerance="10"
     inkscape:pageopacity="0"
     inkscape:pageshadow="2"
     inkscape:window-width="1366"
     inkscape:window-height="705"
     id="namedview4148"
     showgrid="false"
     borderlayer="true"
     inkscape:showpageshadow="false"
     inkscape:object-nodes="true"
     inkscape:snap-smooth-nodes="true"
     showguides="true"
     inkscape:guide-bbox="true"
     inkscape:snap-intersection-paths="true"
     inkscape:zoom="0.538"
     inkscape:cx="499.9999999999999"
     inkscape:cy="499.9999999999999"
     inkscape:window-x="-8"
     inkscape:window-y="-8"
     inkscape:window-maximized="1"
     inkscape:current-layer="svg4136" />
  <path
     style="color:#000000;clip-rule:nonzero;display:inline;overflow:visible;visibility:visible;opacity:1;isolation:auto;mix-blend-mode:normal;color-interpolation:sRGB;color-interpolation-filters:linearRGB;solid-color:#000000;solid-opacity:1;fill:#000000;fill-opacity:1;fill-rule:nonzero;stroke:none;stroke-width:1;stroke-linecap:round;stroke-linejoin:round;stroke-miterlimit:4;stroke-dasharray:none;stroke-dashoffset:0;stroke-opacity:1;marker:none;color-rendering:auto;image-rendering:auto;shape-rendering:auto;text-rendering:auto;enable-background:accumulate"
     d="m 499.9999999999999,950 c -77.6457135307562,0 -157.7568395873958,-21.4657115316247 -225.0000000000006,-60.2885682970028 -67.2431604126029,-38.8228567653781 -125.888574937619,-97.4682712903932 -164.711431702997,-164.7114317029976 -38.82285676537804,-67.243160412604 -60.28856829700206,-147.3542864692437 -60.28856829700206,-224.9999999999994 0,-77.6457135307562 21.46571153162402,-157.756839587396 60.28856829700206,-225.0000000000002 38.8228567653789,-67.243160412604 97.4682712903941,-125.8885749376191 164.7114317029979,-164.7114317029972 67.2431604126035,-38.82285676537809 147.3542864692434,-60.28856829700258 224.9999999999995,-60.28856829700258 77.645713530756,0 157.7568395873958,21.46571153162444 224.9999999999998,60.28856829700258 67.2431604126041,38.8228567653782 125.8885749376194,97.4682712903936 164.7114317029974,164.7114317029976 38.8228567653781,67.243160412604 60.2885682970026,147.3542864692436 60.2885682970026,224.9999999999997 0,77.6457135307558 -21.4657115316245,157.7568395873954 -60.2885682970025,224.9999999999993 -38.8228567653781,67.2431604126042 -97.4682712903934,125.8885749376196 -164.7114317029975,164.7114317029979 -67.2431604126042,38.822856765378 -147.3542864692438,60.2885682970026 -225.0000000000002,60.2885682970026 z"
     id="path4182"
     inkscape:connector-curvature="0"
     sodipodi:nodetypes="sssssssssssss" />
  <path
     sodipodi:nodetypes="sssssssssssss"
     inkscape:connector-curvature="0"
     id="path4185"
     d="m 499.9999999999999,855.0000000000002 c -61.2538406742633,0 -124.4526178967236,-16.9340613193925 -177.5000000000007,-47.5609816565244 -53.0473821032748,-30.6269203371315 -99.3120980063437,-76.8916362401992 -129.9390183434747,-129.9390183434758 -30.6269203371321,-53.0473821032764 -47.560981656524,-116.2461593257367 -47.560981656524,-177.4999999999996 0,-61.2538406742633 16.9340613193919,-124.4526178967237 47.560981656524,-177.5000000000004 30.6269203371321,-53.0473821032765 76.8916362401999,-99.3120980063441 129.9390183434756,-129.9390183434757 53.0473821032763,-30.6269203371316 116.2461593257365,-47.5609816565243 177.4999999999998,-47.5609816565243 61.2538406742631,0 124.4526178967233,16.9340613193927 177.4999999999998,47.5609816565243 53.0473821032765,30.6269203371317 99.3120980063444,76.8916362401995 129.9390183434761,129.9390183434761 30.6269203371315,53.0473821032764 47.5609816565238,116.2461593257367 47.5609816565238,177.4999999999999 0,61.2538406742628 -16.9340613193923,124.4526178967228 -47.5609816565236,177.4999999999995 -30.6269203371319,53.0473821032767 -76.8916362401999,99.3120980063441 -129.9390183434764,129.9390183434761 -53.0473821032764,30.626920337132 -116.2461593257367,47.5609816565244 -177.4999999999998,47.5609816565244 z"
     style="color:#000000;clip-rule:nonzero;display:inline;overflow:visible;visibility:visible;opacity:1;isolation:auto;mix-blend-mode:normal;color-interpolation:sRGB;color-interpolation-filters:linearRGB;solid-color:#000000;solid-opacity:1;fill:#ffffff;fill-opacity:1;fill-rule:nonzero;stroke:none;stroke-width:1;stroke-linecap:round;stroke-linejoin:round;stroke-miterlimit:4;stroke-dasharray:none;stroke-dashoffset:0;stroke-opacity:1;marker:none;color-rendering:auto;image-rendering:auto;shape-rendering:auto;text-rendering:auto;enable-background:accumulate" />
  <path
     transform="matrix(-0.7071067811865473,0.7071067811865473,-0.7071067811865473,-0.7071067811865473,0,0)"
     style="color:#000000;clip-rule:nonzero;display:inline;overflow:visible;visibility:visible;opacity:1;isolation:auto;mix-blend-mode:normal;color-interpolation:sRGB;color-interpolation-filters:linearRGB;solid-color:#000000;solid-opacity:1;fill:#000000;fill-opacity:1;fill-rule:nonzero;stroke:none;stroke-width:1;stroke-linecap:round;stroke-linejoin:round;stroke-miterlimit:4;stroke-dasharray:none;stroke-dashoffset:0;stroke-opacity:1;marker:none;color-rendering:auto;image-rendering:auto;shape-rendering:auto;text-rendering:auto;enable-background:accumulate"
     d="m -282.842712474619,-707.1067811865476 282.842712474619,-282.842712474619 49.99999999998284,49.9999999999827 -1.2e-13,324.2640255535902 162.13201277679527,-162.1320127767951 70.7106781186547,70.7106781186549 -282.84271247461913389997,282.842712474619 -49.99997842081359067378,-49.9999784208135 1.728e-11,-324.2640687119459 -162.13203435598157,162.1320343559816 z"
     id="rect4187"
     inkscape:connector-curvature="0"
     sodipodi:nodetypes="ccccccccccc" />
</svg>
